<svg version="1.1" id="Layer_1" xmlns="http://www.w3.org/2000/svg" xmlns:xlink="http://www.w3.org/1999/xlink" x="0px" y="0px" viewBox="0 0 500 500" style="width: 166px;" xml:space="preserve" data-imageid="online-payment-38" imageName="Online Payment" class="illustrations_image">
<style type="text/css">
	.st0_online-payment-38{fill:#A6BFDB;}
	.st1_online-payment-38{opacity:0.48;fill:url(#SVGID_1_);enable-background:new    ;}
	.st2_online-payment-38{fill:#79C83B;}
	.st3_online-payment-38{fill:#68E1FD;}
	.st4_online-payment-38{fill:#031E28;}
	.st5_online-payment-38{opacity:0.48;fill:url(#SVGID_00000165205766450136365550000016010523967180823945_);enable-background:new    ;}
	.st6_online-payment-38{fill:#054F70;}
	.st7_online-payment-38{fill:#FBF472;}
	.st8_online-payment-38{fill:#EA5353;}
	.st9_online-payment-38{fill:#FFFFFF;}
	.st10_online-payment-38{opacity:0.8;fill:#FFFFFF;enable-background:new    ;}
	.st11_online-payment-38{opacity:0.48;fill:url(#SVGID_00000023996622331669927240000014296441201543223461_);enable-background:new    ;}
	.st12_online-payment-38{opacity:0.33;fill:#031E28;enable-background:new    ;}
	.st13_online-payment-38{fill:#E6E6E6;}
	.st14_online-payment-38{opacity:0.5;fill:#031E28;enable-background:new    ;}
	.st15_online-payment-38{opacity:0.48;fill:url(#SVGID_00000030483830748960729000000003820495328695355531_);enable-background:new    ;}
	.st16_online-payment-38{fill:#FFC9B5;}
	.st17_online-payment-38{opacity:0.3;fill:#031E28;enable-background:new    ;}
	.st18_online-payment-38{opacity:0.14;fill:#031E28;enable-background:new    ;}
</style>
<path id="field_online-payment-38" class="st0_online-payment-38" d="M243,438L23.6,308.3c-7-4-13-10.4-6.2-14.6l220.2-126.9c3.3-2.1,8.3-3.4,11.7-1.4l230.3,133.7&#10;&#9;c7,4,8.2,15.4,1.2,19.5l-209,119.3C263,443,252,443.1,243,438z"/>
<g id="plant_online-payment-38">
	
		<linearGradient id="SVGID_1_-online-payment-38" gradientUnits="userSpaceOnUse" x1="372.8499" y1="-1555.6104" x2="416.0198" y2="-1587.5002" gradientTransform="matrix(1 0 0 1 0 1905.1399)">
		<stop offset="1.000000e-02" style="stop-color:#054F70;stop-opacity:0"/>
		<stop offset="1" style="stop-color:#054F70"/>
	</linearGradient>
	<path class="st1_online-payment-38" d="M404.5,322.3l-46.7,22.7c6.9,4.6,14.1,8.6,21.7,11.9l47.5-31.7"/>
	<path class="st2_online-payment-38" d="M400.1,279.1c-0.1-0.1-0.2-0.3-0.3-0.4c-2-1-4-2-6.1-2.8c-0.6-0.5-1.3-0.9-1.9-1.3c-0.2,0.2-0.5,0.4-0.9,0.4&#10;&#9;&#9;c-3-0.1-6-0.4-8.9-1c-0.1,0.3-0.2,0.5-0.3,0.8c2.7,3.1,4.5,6.8,5.2,10.8c0.6,0.6,1.2,1.3,1.8,2c3,1.2,7,0.9,10.3,1.3&#10;&#9;&#9;c0.2-0.3,0.3-0.7,0.4-1.1h0.1c1.1,0.4,2.2,0.9,3.3,1.5c2.2,0.3,4.3,1.2,6.1,2.5c0.5-0.2,0.9-0.5,1.3-0.8&#10;&#9;&#9;C406.9,287.1,403.9,282.8,400.1,279.1z"/>
	<path class="st2_online-payment-38" d="M417.2,282.3l8.3-6.5c0,0,11.2-3.5,11-15.6s-3.7-15.2-3.7-15.2S418.8,266,417.2,282.3z"/>
	<path class="st3_online-payment-38 targetColor" d="M399.7,305.1l4.2,19.8c0.3,1.3,1.2,2.5,2.4,3.1c2.5,1.2,7.5,2.5,17.2,0.7c1.8-0.3,3.2-1.7,3.6-3.4l4.3-20.1" style="fill: rgb(104, 225, 253);"/>
	<ellipse class="st4_online-payment-38" cx="415.6" cy="305.1" rx="15.9" ry="6.5"/>
	<path class="st4_online-payment-38" d="M437.4,256.2c-0.4-4.8-3.5-9.1-3-13.9c0.1-0.9-1.1-1.1-1.6-0.4c-8.2,12.1-13.6,25.9-15.6,40.4&#10;&#9;&#9;c-0.1,0.2-0.1,0.4-0.1,0.6c-0.9,6.5-1.1,13-0.6,19.5c0.6-0.1,1.1-0.1,1.6-0.3c-0.4-6.4-0.2-12.8,0.6-19.1c2.8-3.4,6.8-4.9,10.2-7.6&#10;&#9;&#9;c2.9-2.2,5.2-5.2,6.6-8.5C437.1,263.5,437.7,259.8,437.4,256.2z M434,266.2c-1.8,4-4.8,7.4-8.5,9.6c-1.6,1-3.1,1.9-4.6,3&#10;&#9;&#9;c3-5.9,5.6-12.1,7.8-18.4c0.4-1-1.3-1.5-1.6-0.5c-2,5.9-4.5,11.7-7.3,17.4c2.3-11.5,6.7-22.5,13-32.3c0.4,2.7,1.7,5.2,2.4,7.9&#10;&#9;&#9;C436.3,257.4,435.8,262,434,266.2z"/>
	<path class="st4_online-payment-38" d="M415.7,302.5c-1.3-3.4-2.6-6.9-4.2-10.2c0-0.3-0.1-0.6-0.4-0.8l0,0c-2-4.1-4.6-7.8-7.8-10.9&#10;&#9;&#9;c-6.3-6-14.6-7.5-23-8.4c-0.9-0.1-1,0.9-0.5,1.4c0.1,0.2,0.2,0.4,0.4,0.5c5,3.1,3.5,10.9,8.8,13.8c2.5,1.3,5.5,1,8.2,1.1&#10;&#9;&#9;c3.6,0,7.1,0.9,10.4,2.4c2.8,3.1,4.8,6.9,5.7,11.1C414.1,302.4,414.9,302.5,415.7,302.5z M392.7,279.6c-1-0.4-1.5,1.2-0.5,1.6&#10;&#9;&#9;c4.4,1.6,8.6,4,12.2,7c-0.9-0.3-1.8-0.5-2.6-0.6c-3.5-0.6-8.9,0.5-12-1.3c-4.3-2.5-4-8.7-7.1-12.3c7.5,1,14.7,2.8,20.2,8.5&#10;&#9;&#9;c2,2.1,3.7,4.4,5.2,6.9C403.8,285,398.5,281.7,392.7,279.6L392.7,279.6z"/>
</g>
<g id="cc_online-payment-38">
	
		<linearGradient id="SVGID_00000089538407480418445010000013714422321080461499_-online-payment-38" gradientUnits="userSpaceOnUse" x1="46.9222" y1="-1588.7471" x2="90.0922" y2="-1620.637" gradientTransform="matrix(1 0 0 1 0 1905.1399)">
		<stop offset="1.000000e-02" style="stop-color:#054F70;stop-opacity:0"/>
		<stop offset="1" style="stop-color:#054F70"/>
	</linearGradient>
	<path style="opacity:0.48;fill:url(#SVGID_00000089538407480418445010000013714422321080461499_);enable-background:new    ;" d="&#10;&#9;&#9;M78.6,289.1l-46.7,22.7c6.9,4.6,14.1,8.6,21.7,11.9l47.6-31.7"/>
	<path class="st6_online-payment-38" d="M56.1,239.8v65.1c0,3.1,2.5,5.6,5.6,5.5c1,0,1.9-0.3,2.8-0.8l96.6-57.5c1.7-1,2.7-2.8,2.6-4.8v-66.3&#10;&#9;&#9;c0-3.1-2.5-5.5-5.6-5.5c-1,0-1.9,0.3-2.8,0.8l-94.6,55.3C57.9,233.3,56.1,236.4,56.1,239.8z"/>
	<path class="st3_online-payment-38 targetColor" d="M60.3,241.4v65.1c0,3.1,2.5,5.5,5.6,5.5c1,0,1.9-0.3,2.8-0.8l96.6-57.5c1.6-1,2.7-2.8,2.6-4.7v-66.3&#10;&#9;&#9;c0-3.1-2.5-5.5-5.6-5.5c0,0,0,0,0,0c-1,0-1.9,0.3-2.8,0.8l-94.6,55.3C62,234.9,60.3,238,60.3,241.4z" style="fill: rgb(104, 225, 253);"/>
	
		<ellipse transform="matrix(0.3667 -0.9304 0.9304 0.3667 -128.5585 297.0891)" class="st7_online-payment-38" cx="153.9" cy="243" rx="10.1" ry="6.9"/>
	
		<ellipse transform="matrix(0.3667 -0.9304 0.9304 0.3667 -139.8573 291.4449)" class="st8_online-payment-38" cx="144.1" cy="248.4" rx="10.1" ry="6.9"/>
	<path class="st9_online-payment-38" d="M72.3,237.4c1.2-0.7,2-0.3,2.3,1l-0.9,0.9c-0.2-0.7-0.7-0.9-1.3-0.5c-0.5,0.3-0.9,0.8-1.1,1.3&#10;&#9;&#9;c-0.3,0.7-0.5,1.4-0.5,2.2c-0.1,0.6,0.1,1.2,0.4,1.7c0.3,0.3,0.8,0.3,1.1,0c0.7-0.5,1.2-1.2,1.3-2.1l0.9-0.2&#10;&#9;&#9;c-0.2,1.5-1,2.8-2.3,3.6c-0.6,0.4-1.3,0.4-1.9,0c-0.6-0.7-0.9-1.5-0.8-2.4c0-1.1,0.3-2.3,0.8-3.3C70.8,238.6,71.5,237.9,72.3,237.4&#10;&#9;&#9;z"/>
	<path class="st9_online-payment-38" d="M78.2,238.3l1.5,2.5l-1.2,0.7l-1.5-2.5l-0.5,0.3v3.3l-1,0.6v-7.6l2-1.2c1.1-0.6,1.7-0.1,1.7,1.2&#10;&#9;&#9;C79.2,236.6,78.9,237.6,78.2,238.3z M77.5,237.5c0.4-0.3,0.7-0.7,0.7-1.2c0-0.6-0.2-0.7-0.7-0.5l-1,0.6v1.7L77.5,237.5"/>
	<polygon class="st9_online-payment-38" points="83.9,230.8 83.9,232.1 81.5,233.5 81.5,235.1 83.4,234 83.4,235.3 81.5,236.4 81.5,238.5 84,237.1 &#10;&#9;&#9;84,238.4 80.4,240.4 80.5,232.8 &#9;"/>
	<path class="st9_online-payment-38" d="M86.7,229.2c1.3-0.7,2.7-0.3,2.6,2.3c0.1,2.1-0.9,4.1-2.7,5.3l-1.7,1v-7.6L86.7,229.2z M87.6,234.5&#10;&#9;&#9;c0.4-0.7,0.6-1.5,0.6-2.4c0-1-0.2-1.5-0.6-1.6c-0.4-0.1-0.9,0-1.3,0.2L86,231v5l0.4-0.2C86.9,235.5,87.4,235.1,87.6,234.5"/>
	<polygon class="st9_online-payment-38" points="91.3,226.6 91.2,234.2 90.2,234.8 90.2,227.2 &#9;"/>
	<polygon class="st9_online-payment-38" points="96.3,223.8 96.3,225.1 94.7,225.9 94.7,232.2 93.7,232.8 93.7,226.5 92.2,227.4 92.2,226.1 &#9;"/>
	<path class="st9_online-payment-38" d="M101.3,220.8c1.2-0.7,2-0.3,2.3,1l-0.9,0.9c-0.2-0.7-0.7-0.9-1.3-0.5c-0.5,0.3-0.9,0.8-1.1,1.3&#10;&#9;&#9;c-0.3,0.7-0.5,1.4-0.5,2.2c-0.1,0.6,0.1,1.2,0.4,1.7c0.3,0.3,0.8,0.3,1.1,0c0.7-0.5,1.2-1.3,1.3-2.1l0.9-0.2&#10;&#9;&#9;c-0.2,1.5-1,2.8-2.3,3.6c-0.6,0.4-1.3,0.4-1.9,0c-0.6-0.7-0.9-1.6-0.8-2.4c0-1.1,0.3-2.3,0.8-3.3C99.9,222,100.5,221.3,101.3,220.8&#10;&#9;&#9;z"/>
	<path class="st9_online-payment-38" d="M106.8,217.7l1.8,6.5l-1.1,0.6l-0.4-1.6l-1.8,1l-0.4,2l-1.1,0.6l1.9-8.7L106.8,217.7z M105.7,222.9l1.2-0.7&#10;&#9;&#9;l-0.6-2.3L105.7,222.9"/>
	<path class="st9_online-payment-38" d="M112.1,218.9l1.5,2.5l-1.2,0.7l-1.5-2.4l-0.6,0.3v3.3l-1,0.6v-7.6l2-1.1c1.1-0.6,1.7-0.1,1.7,1.2&#10;&#9;&#9;C113.1,217.3,112.8,218.2,112.1,218.9z M111.4,218.1c0.4-0.3,0.7-0.7,0.7-1.2c0-0.6-0.2-0.7-0.7-0.5l-1,0.6v1.7L111.4,218.1"/>
	<path class="st9_online-payment-38" d="M116.1,212.4c1.3-0.7,2.7-0.3,2.6,2.3c0.1,2.1-0.9,4.1-2.7,5.3l-1.8,1v-7.6L116.1,212.4z M117,217.7&#10;&#9;&#9;c0.4-0.7,0.6-1.5,0.6-2.4c0-0.9-0.2-1.5-0.6-1.6c-0.4-0.1-0.9,0-1.3,0.2l-0.4,0.2v5l0.4-0.2C116.3,218.6,116.8,218.2,117,217.7"/>
	<path class="st10_online-payment-38" d="M71.8,257.5v12.2c0,1.6,1.3,2.9,2.9,2.9c0.5,0,1-0.1,1.4-0.4l17-9.7c0.9-0.5,1.5-1.5,1.5-2.5v-12.4&#10;&#9;&#9;c0-1.6-1.3-2.9-2.9-2.9c-0.5,0-1,0.1-1.4,0.4l-17,9.9C72.3,255.5,71.8,256.4,71.8,257.5z"/>
	<polygon class="st9_online-payment-38" points="101.3,247.2 101.7,247 101.2,254.6 100.3,255.1 100.7,249.4 99.6,250.9 99.7,249.4 &#9;"/>
	<path class="st9_online-payment-38" d="M104.1,245.4l0.1-0.1c0.9-0.6,1.4,0,1.3,1.3c-0.1,0.7-0.2,1.4-0.5,2.1l-1.3,3.1l1.8-1.1l-0.1,1.3l-3.2,1.9&#10;&#9;&#9;v-0.5l2-4.6c0.2-0.5,0.4-1,0.5-1.6c0-0.6-0.2-0.9-0.5-0.6l0,0c-0.4,0.3-0.6,0.8-0.7,1.3l-0.8,0.3c0.1-0.6,0.2-1.2,0.6-1.7&#10;&#9;&#9;C103.4,246.1,103.7,245.7,104.1,245.4z"/>
	<path class="st9_online-payment-38" d="M106.9,243.9l2.8-1.8v0.5l-1.3,3.1l0.2-0.1c0.8-0.5,1.2,0.2,1.1,1.5c0,0.8-0.2,1.5-0.6,2.2&#10;&#9;&#9;c-0.3,0.5-0.6,1-1.1,1.3l-0.2,0.1c-0.4,0.3-0.8,0.3-1.1,0.1c-0.3-0.4-0.5-0.8-0.4-1.3l0.9-0.7c0.1,0.7,0.3,0.9,0.7,0.6l0,0&#10;&#9;&#9;c0.5-0.4,0.8-1,0.8-1.7c0-0.9-0.2-1.1-0.7-0.9l0,0c-0.1,0.1-0.3,0.2-0.4,0.4l-0.3-0.6l1.1-2.5l-1.6,0.9L106.9,243.9z"/>
	<path class="st9_online-payment-38" d="M113.4,244.7l0.6-0.3l-0.1,1.3l-0.6,0.3l-0.1,1.4l-0.9,0.5l0.1-1.4l-2.1,1.3v-0.7l2.5-6.8l0.9-0.6L113.4,244.7&#10;&#9;&#9;z M112.5,245.2l0.2-2.9l-1.2,3.5L112.5,245.2"/>
	<path class="st9_online-payment-38" d="M119.6,241l0.6-0.3L120,242l-0.6,0.3l-0.1,1.4l-0.9,0.5l0.1-1.4l-2.1,1.3v-0.7l2.5-6.8l0.9-0.6L119.6,241z&#10;&#9;&#9; M118.7,241.5l0.2-2.9l-1.2,3.5L118.7,241.5"/>
	<path class="st9_online-payment-38" d="M121.7,235l2.6-1.5l-0.1,1.3l-1.8,1.1l-0.2,1.6c0.2-0.2,0.4-0.5,0.6-0.6h0.1c1-0.6,1.4,0,1.3,1.6&#10;&#9;&#9;c0,0.8-0.2,1.5-0.6,2.2c-0.3,0.5-0.6,1-1.1,1.3l-0.1,0.1c-0.3,0.2-0.7,0.2-1,0.1c-0.3-0.3-0.4-0.8-0.4-1.2l0.9-0.7&#10;&#9;&#9;c0,0.6,0.3,0.8,0.7,0.6h0.1c0.5-0.4,0.8-1.1,0.8-1.8c0-0.9-0.2-1.1-0.7-0.8h-0.1c-0.4,0.3-0.7,0.7-0.8,1.2l-0.6,0.2L121.7,235z"/>
	<path class="st9_online-payment-38" d="M128,234.5c0.3,0.4,0.4,1,0.3,1.5c-0.1,0.7-0.3,1.4-0.6,2c-0.3,0.5-0.6,1-1.1,1.3l-0.1,0.1&#10;&#9;&#9;c-0.5,0.3-0.8,0.3-1.1,0c-0.3-0.4-0.5-0.9-0.4-1.4c0-0.5,0.2-1,0.3-1.5l1.7-4.8l1-0.6l-1.3,3.5h0.1&#10;&#9;&#9;C127.4,234.2,127.7,234.2,128,234.5z M127.4,236.5c0-0.8-0.2-1-0.7-0.8h-0.1c-0.5,0.4-0.8,1-0.8,1.6c0,0.7,0.2,1,0.7,0.8l0,0&#10;&#9;&#9;C127.1,237.7,127.4,237.1,127.4,236.5"/>
	<polygon class="st9_online-payment-38" points="129.3,230.5 132.3,228.7 132.2,229.2 129.9,237.4 129,237.9 131.1,230.6 129.2,231.7 &#9;"/>
	<path class="st9_online-payment-38" d="M137,229.2c0.4,0.1,0.6,0.6,0.5,1.4c0,0.7-0.2,1.4-0.6,2c-0.3,0.5-0.6,0.9-1.1,1.2l-0.1,0.1&#10;&#9;&#9;c-0.3,0.2-0.8,0.2-1.1,0c-0.3-0.4-0.5-0.9-0.4-1.4c0-0.8,0.3-1.6,0.8-2.2c-0.3-0.2-0.4-0.6-0.4-1.2c0-0.6,0.2-1.2,0.5-1.7&#10;&#9;&#9;c0.2-0.5,0.6-0.9,1-1.1l0.1-0.1c0.4-0.2,0.8-0.2,1,0c0.3,0.3,0.4,0.8,0.3,1.2C137.6,228,137.4,228.6,137,229.2z M136.6,231.2&#10;&#9;&#9;c0-0.2,0-0.5-0.2-0.7c-0.1-0.1-0.3-0.1-0.5,0l0,0c-0.2,0.1-0.4,0.3-0.5,0.6c-0.1,0.3-0.2,0.6-0.2,0.9c-0.1,0.2,0,0.5,0.1,0.7&#10;&#9;&#9;c0.1,0.1,0.4,0.1,0.5,0h0.1c0.2-0.1,0.4-0.3,0.5-0.6C136.6,231.9,136.7,231.5,136.6,231.2 M136.8,228c0-0.6-0.2-0.8-0.6-0.6l0,0&#10;&#9;&#9;c-0.4,0.3-0.6,0.8-0.6,1.3c0,0.6,0.2,0.8,0.5,0.6l0,0C136.6,229,136.8,228.5,136.8,228"/>
	<path class="st9_online-payment-38" d="M141.4,223.8c0.3,0.4,0.5,1,0.4,1.5c0,0.5-0.1,1-0.3,1.5l-1.7,4.8l-1,0.6l1.3-3.5H140c-0.5,0.3-0.8,0.3-1.1,0&#10;&#9;&#9;c-0.3-0.4-0.4-1-0.4-1.5c0-0.7,0.3-1.4,0.6-2.1c0.3-0.5,0.6-1,1.1-1.3l0.1-0.1C140.7,223.5,141.1,223.5,141.4,223.8z M140.9,225.8&#10;&#9;&#9;c0-0.7-0.2-1-0.7-0.8l0,0c-0.5,0.4-0.8,1-0.8,1.6c0,0.8,0.2,1,0.7,0.8h0.1C140.7,227,141,226.4,140.9,225.8"/>
	<polygon class="st9_online-payment-38" points="142.6,222.5 145.6,220.7 145.6,221.2 143.3,229.4 142.4,229.9 144.5,222.6 142.5,223.7 &#9;"/>
	<path class="st9_online-payment-38" d="M149,219.2c0.3,0.4,0.5,1,0.4,1.5c0,0.5-0.2,1-0.3,1.5l-1.7,4.8l-1,0.6l1.3-3.5h-0.1c-0.5,0.3-0.8,0.3-1.1,0&#10;&#9;&#9;c-0.3-0.4-0.4-1-0.4-1.5c0.1-0.7,0.3-1.4,0.6-2.1c0.3-0.5,0.6-1,1.1-1.3l0.1-0.1C148.3,218.9,148.7,219,149,219.2z M148.5,221.2&#10;&#9;&#9;c0-0.7-0.2-1-0.7-0.8l0,0c-0.5,0.4-0.8,1-0.8,1.6c0,0.7,0.2,1,0.7,0.8h0.1C148.2,222.5,148.5,221.9,148.5,221.2"/>
	<polygon class="st9_online-payment-38" points="89.3,277.5 87.9,281.8 89.3,284.8 88.3,285.5 87.3,283.5 86.2,286.9 85.2,287.6 86.9,282.5 85.6,280 &#10;&#9;&#9;86.6,279.4 87.4,280.9 88.3,278.2 &#9;"/>
	<polygon class="st9_online-payment-38" points="85.1,280.5 83.7,284.8 85.1,287.7 84.1,288.4 83.1,286.4 82,289.8 81,290.5 82.6,285.5 81.4,283 &#10;&#9;&#9;82.4,282.3 83.2,283.8 84,281.1 &#9;"/>
	<polygon class="st9_online-payment-38" points="93.5,274.6 92.1,278.9 93.6,281.8 92.5,282.5 91.6,280.6 90.5,284 89.4,284.7 91.1,279.6 89.8,277.1 &#10;&#9;&#9;90.9,276.4 91.6,278 92.5,275.3 &#9;"/>
	<polygon class="st9_online-payment-38" points="99.5,270.5 98.1,274.8 99.6,277.7 98.5,278.4 97.6,276.5 96.4,279.8 95.4,280.6 97.1,275.5 95.8,273 &#10;&#9;&#9;96.8,272.3 97.6,273.8 98.5,271.2 &#9;"/>
	<polygon class="st9_online-payment-38" points="103.7,267.6 102.3,271.9 103.8,274.8 102.7,275.5 101.8,273.5 100.7,276.9 99.7,277.6 101.3,272.6 &#10;&#9;&#9;100.1,270.1 101.1,269.4 101.8,270.9 102.7,268.3 &#9;"/>
	<polygon class="st9_online-payment-38" points="107.9,264.6 106.5,268.9 108,271.9 107,272.6 106,270.6 104.9,274 103.9,274.7 105.5,269.6 &#10;&#9;&#9;104.3,267.2 105.3,266.5 106.1,268 106.9,265.3 &#9;"/>
</g>
<g id="online-payment_online-payment-38">
	
		<linearGradient id="SVGID_00000112610950589951410390000009955876215628738739_-online-payment-38" gradientUnits="userSpaceOnUse" x1="245.0047" y1="-1578.8795" x2="286.6947" y2="-1637.7396" gradientTransform="matrix(1 0 0 1 0 1905.1399)">
		<stop offset="1.000000e-02" style="stop-color:#054F70;stop-opacity:0"/>
		<stop offset="1" style="stop-color:#054F70"/>
	</linearGradient>
	<path style="opacity:0.48;fill:url(#SVGID_00000112610950589951410390000009955876215628738739_);enable-background:new    ;" d="&#10;&#9;&#9;M290.7,286.9c-12.3-7.8-24.5-15.6-35.9-24.5L190.9,299l66.2,51.6c7.6-4.8,47.3-24.7,70.3-36.9V311&#10;&#9;&#9;C315.1,303,303.1,294.7,290.7,286.9z"/>
	<path class="st3_online-payment-38 targetColor" d="M324.8,117.1l-69.3-40.9c-2.1-1-4.4-1.2-6.6-0.4h-0.1c-0.5,0.2-1,0.4-1.5,0.7l-6.6,2.9l3.5,1.6l0,0l2.2,177.4&#10;&#9;&#9;c0,6.4,3.4,12.2,8.9,15.4l64.6,37.6l-1,6.1l8.8-4.6l0,0c1.7-0.9,2.8-2.8,2.8-4.7V127C330.4,122.9,328.3,119.2,324.8,117.1z" style="fill: rgb(104, 225, 253);"/>
	<path class="st12_online-payment-38" d="M324.8,117.1l-69.3-40.9c-2.1-1-4.4-1.2-6.6-0.4h-0.1c-0.5,0.2-1,0.4-1.5,0.7l-6.6,2.9l3.5,1.6l0,0l2.2,177.4&#10;&#9;&#9;c0,6.4,3.4,12.2,8.9,15.4l64.6,37.6l-1,6.1l8.8-4.6l0,0c1.7-0.9,2.8-2.8,2.8-4.7V127C330.4,122.9,328.3,119.2,324.8,117.1z"/>
	<path class="st13_online-payment-38" d="M313.9,317.1l-67-39c-5.5-3.2-8.9-9.1-8.9-15.5v-179c0-2.6,2.1-4.7,4.7-4.7c0,0,0,0,0,0&#10;&#9;&#9;c0.9,0,1.7,0.2,2.4,0.7l71.2,42.1c3.5,2.1,5.6,5.8,5.6,9.9v181c0,3-2.4,5.4-5.4,5.4C315.6,317.9,314.7,317.7,313.9,317.1&#10;&#9;&#9;L313.9,317.1z"/>
	<path class="st10_online-payment-38" d="M313.9,317.1l-67-39c-5.5-3.2-8.9-9.1-8.9-15.5v-179c0-2.6,2.1-4.7,4.7-4.7c0,0,0,0,0,0&#10;&#9;&#9;c0.9,0,1.7,0.2,2.4,0.7l71.2,42.1c3.5,2.1,5.6,5.8,5.6,9.9v181c0,3-2.4,5.4-5.4,5.4C315.6,317.9,314.7,317.7,313.9,317.1&#10;&#9;&#9;L313.9,317.1z"/>
	<polygon class="st6_online-payment-38" points="317.8,142.4 241.4,98.6 241.4,255.2 317.8,299.4 &#9;"/>
	
		<ellipse transform="matrix(0.9727 -0.2323 0.2323 0.9727 -58.4627 71.0514)" class="st13_online-payment-38" cx="272.5" cy="283.8" rx="3.5" ry="4.8"/>
	<path class="st6_online-payment-38" d="M269.6,106.2L269.6,106.2c0,0.6,0.3,1.2,0.9,1.5l14.8,8.5c0.8,0.5,1.9,0.2,2.3-0.6c0.2-0.3,0.2-0.6,0.2-0.8&#10;&#9;&#9;v-0.3c0-0.6-0.3-1.2-0.9-1.5l-14.8-8.1c-0.8-0.5-1.9-0.1-2.3,0.7C269.7,105.6,269.6,105.9,269.6,106.2z"/>
	<path class="st4_online-payment-38" d="M250,128.3V128c0-3.5,4.3-5.7,7.8-3.9l48.9,27.2c0.8,0.4,1.6,0.9,2.3,1.4l0,0c3.5,2.9-0.2,9.9-6.8,6.8&#10;&#9;&#9;l-49.6-27.2C251.1,131.6,250,130,250,128.3z"/>
	<path class="st2_online-payment-38" d="M301.1,206.5c2.4,19.3-6.5,36.1-19.9,37.6s-26.2-13-28.6-32.3s6.5-36.1,19.9-37.6S298.7,187.2,301.1,206.5z"/>
	<polygon class="st9_online-payment-38" points="260,211.3 264,205.1 271,215.9 286.7,191.6 292.9,196.7 271.6,229 &#9;"/>
	<path class="st13_online-payment-38" d="M324.7,78c5.9,4.1,9.3,10.9,9,18.1c-0.6,16.8-4.3,20-4.3,20L304,100.4l-40-25.6C264,74.8,296.6,66.8,324.7,78&#10;&#9;&#9;z"/>
	<path class="st14_online-payment-38" d="M324.7,78c5.9,4.1,9.3,10.9,9,18.1c-0.6,16.8-4.3,20-4.3,20L304,100.4l-40-25.6C264,74.8,296.6,66.8,324.7,78&#10;&#9;&#9;z"/>
	<path class="st13_online-payment-38" d="M297.2,156.7L253,132.5c0,0,0.6-42.9,17.6-69.1c3.2-4.8,9.4-6.5,14.6-4L324.7,78&#10;&#9;&#9;C324.7,78,309.5,69.1,297.2,156.7z"/>
	<path class="st14_online-payment-38" d="M302.1,88.3l-28.4-15.6c-2.2-1.2-4.2,2.2-2,3.4l28.4,15.6C302.3,92.9,304.3,89.5,302.1,88.3L302.1,88.3z"/>
	<path class="st14_online-payment-38" d="M298.1,96.1l-28.4-15.6c-2.2-1.2-4.2,2.2-2,3.4l28.4,15.6C298.3,100.7,300.4,97.3,298.1,96.1z"/>
	<path class="st14_online-payment-38" d="M292.3,115.5l-28.4-15.6c-2.2-1.2-4.2,2.2-2,3.4l28.4,15.6C292.5,120.1,294.5,116.7,292.3,115.5z"/>
	<path class="st14_online-payment-38" d="M289.8,124.9l-28.4-15.6c-2.2-1.2-4.2,2.2-2,3.4l28.4,15.6C290.1,129.6,292.1,126.2,289.8,124.9z"/>
	<path class="st14_online-payment-38" d="M289.8,135.2l-28.4-15.6c-2.2-1.2-4.2,2.2-2,3.4l28.4,15.6C290.1,139.9,292.1,136.5,289.8,135.2z"/>
	<polyline class="st9_online-payment-38" points="312.1,105.1 315.1,103.7 315.1,106.8 318.1,105.7 318.1,108.6 321.6,107.4 321.6,110.8 324.7,109.5 &#10;&#9;&#9;325,112.9 327.5,111.5 327.9,114.7 330.5,112.9 330.5,116.3 333.3,114.5 333.5,118.2 329.9,118.2 &#9;"/>
</g>
<g id="person_online-payment-38">
	
		<linearGradient id="SVGID_00000093890401744404483910000006683564858104615056_-online-payment-38" gradientUnits="userSpaceOnUse" x1="147.0173" y1="-1514.2413" x2="234.2273" y2="-1587.2614" gradientTransform="matrix(1 0 0 1 0 1905.1399)">
		<stop offset="1.000000e-02" style="stop-color:#054F70;stop-opacity:0"/>
		<stop offset="1" style="stop-color:#054F70"/>
	</linearGradient>
	<path style="opacity:0.48;fill:url(#SVGID_00000093890401744404483910000006683564858104615056_);enable-background:new    ;" d="&#10;&#9;&#9;M258.9,324.5l-6.2-9.4l-8-3.1l-12.3,6l-98,56.2l33.5,19.5C177.9,387.3,249.1,331.1,258.9,324.5z"/>
	<path class="st16_online-payment-38" d="M211.6,175.8c0.8-2.2,1.5-4.4,2.1-6.7c0.3-1.6-1.3-7.7-0.2-8s2.5,3.8,2.5,3.8s3.3-7.5,4.2-7.8&#10;&#9;&#9;s3.6-0.6,4.2,0.1s2.4,5,1.6,6.5c-1.7,2.6-3.6,5.2-5.6,7.6c-0.3,0.2-3.8,7.7-4.2,7.9S212,177.5,211.6,175.8z"/>
	<path class="st8_online-payment-38" d="M175.3,200c0,0,18.2-7.2,21.4-9.8s14.6-16.1,14.6-16.1s6.6,2.4,6.5,5.8c0,0-9.3,15.5-13.6,19.6&#10;&#9;&#9;s-20,14.6-23.4,14.3S175.3,200,175.3,200z"/>
	<path class="st17_online-payment-38" d="M175.3,200c0,0,18.2-7.2,21.4-9.8s14.6-16.1,14.6-16.1s6.6,2.4,6.5,5.8c0,0-9.3,15.5-13.6,19.6&#10;&#9;&#9;s-20,14.6-23.4,14.3S175.3,200,175.3,200z"/>
	<path class="st4_online-payment-38" d="M186.9,347.2c0,0,4.3-3.7,9.3-2.3s3.9,5.1,0.8,7.4s-14.9,10.2-18.5,10.2s-4.4-3-4.5-5c0.2-3.1,0.6-6.2,1.1-9.3&#10;&#9;&#9;"/>
	<path class="st16_online-payment-38" d="M184.2,346.9c0.1,0.5,0.5,0.8,1,0.8h0.2c1.3-0.4,2.6-0.9,3.9-1.5c0,0,4.2,0,1.6,4.2s-11.4,5.4-14.1,3.9&#10;&#9;&#9;s-0.9-6-0.9-6"/>
	<path class="st4_online-payment-38" d="M197.1,355.4c0,0,4.3-3.7,9.3-2.3s3.9,5.1,0.8,7.4s-14.9,10.2-18.5,10.2s-4.4-3-4.5-5c0.2-3.1,0.6-6.2,1.1-9.3&#10;&#9;&#9;"/>
	<path class="st16_online-payment-38" d="M194.4,355.1c0.1,0.5,0.5,0.8,1,0.8h0.2c1.3-0.4,2.6-0.9,3.9-1.5c0,0,4.2,0,1.6,4.2s-11.3,5.4-14.1,3.8&#10;&#9;&#9;s-0.9-6-0.9-6"/>
	<path class="st4_online-payment-38" d="M199,240.9c1.4,3.2,2.2,49.1,1.6,60.9s-6.2,53.3-6.2,53.3s-3.2,4.9-8.6,4.5s-4.4-4.7-4.4-4.7s-6.9,3.2-10-3.9&#10;&#9;&#9;c-1.1-2.7-6.4-75.7-6.4-84.1c0.2-10,2.9-19.7,7.9-28.3"/>
	<path class="st13_online-payment-38" d="M181.4,354.9c0,0-3.3-92.7-2.9-95.4s-0.9,20.3-0.8,26.6C177.8,290.6,180.5,348.6,181.4,354.9z"/>
	<path class="st8_online-payment-38" d="M199,240.9c0,0,4.8-32.8-2-39s-25.8-10.6-29.3-7.5s1.8,37.9,5.3,44.4S196.5,243.4,199,240.9z"/>
	<path class="st16_online-payment-38" d="M190.4,177.7c0.2,0.5,3.5,13.2-2.4,15.1s-7-5.1-7.6-5.6s-2.4-1-2.3-2.4s2.3-1.4,2.3-1.4s0.9-3.7,3.5-5.3&#10;&#9;&#9;S190.4,177.7,190.4,177.7z"/>
	<path class="st4_online-payment-38" d="M184.9,181.4c0,0,4.9,0.1,7-2c1.6-1.6,1.6-4.2-0.1-5.8c0,0,0,0,0,0l-0.2-0.2c0,0,1.9-3.9-1.7-4.8&#10;&#9;&#9;c0,0-0.3-3.6-7.6-1.9s-13.9,6.8-14,13.4s-0.6,7.4-2.9,8.9s-1.7,7.4,4.6,7.6s14.9-0.3,15.7-3.4s-4-3.4-4.6-6.6&#10;&#9;&#9;C180.7,184,182.4,181.7,184.9,181.4z"/>
	<path class="st16_online-payment-38" d="M208.4,236.2c0,0,5,5.4,6.5,6c2.2,1,4.4,2.2,6.4,3.6c-0.7,0.6-1.3,1.3-1.8,2v0.1c-0.6-0.5-1.1-0.8-1.1-0.6&#10;&#9;&#9;c0,0.8,5,7.2,5.7,8.2c0.7,1-1.3,4.2-1.3,4.2c-3.2,1.1-6.9-2.2-9.3-4.4s-3.5-7.3-4.3-7.9s-7.6-5.1-8.1-6.5S208.4,236.2,208.4,236.2z&#10;&#9;&#9;"/>
	<path class="st8_online-payment-38" d="M198.5,204.2c1.3,2.9,1.3,6.1,1.9,9.3c0.4,2.2,0.9,4.6,1.4,6.8c0.4,2.3,1.1,4.6,2.2,6.7&#10;&#9;&#9;c1.9,3.1,4.3,5.8,6.4,8.7c0.6,0.6,1,1.4,1.2,2.2c0.2,2-2.4,7.8-9.4,7.1c-3.6-2.9-6.9-6.1-10-9.5c-4-4.7-7.7-20.5-7.4-25.7&#10;&#9;&#9;c0.3-3.6,2.2-7.6,5.6-9.1c2.3-0.9,4.9-0.3,6.6,1.5C197.6,202.7,198.1,203.4,198.5,204.2z"/>
	<path class="st4_online-payment-38" d="M198.1,241.4c0,0-5.9-5-7.4-8.1s-3.4-8.5-3.4-8.5s2.7,15.8,5.4,17.9C194.6,242.5,196.4,242.1,198.1,241.4z"/>
	<path class="st2_online-payment-38" d="M224.1,243.6c-12.1,0.9-11.5,22.5-12.3,31.4c-0.2,2.3,2.9,3,3.1,0.8c0.7-7.4,0.2-17.5,4-24.1&#10;&#9;&#9;c1.2-2,2.6-4,4.9-4.2c1.5-0.1,3,0.6,4,1.7c1.1,1.1,1.6,5.2,1.8,6.5c0.6,4.6,0.7,9.3,0.2,13.9c-0.2,2.2,2.9,3,3.1,0.7&#10;&#9;&#9;C233.6,263.2,234.9,242.8,224.1,243.6z"/>
	<polyline class="st8_online-payment-38" points="242.2,258 245.9,264.7 253.1,266.4 247.7,287.1 232.2,276 &#9;"/>
	<polygon class="st8_online-payment-38" points="204.8,280.7 242.2,258 241,291.7 212.4,294.7 &#9;"/>
	<polygon class="st17_online-payment-38" points="204.8,280.7 242.2,258 241,291.7 212.4,294.7 &#9;"/>
	<polygon class="st3_online-payment-38 targetColor" points="218.2,285.7 224,349.5 258.9,326.4 253.1,266.4 &#9;" style="fill: rgb(104, 225, 253);"/>
	<polygon class="st3_online-payment-38 targetColor" points="218.2,285.7 214.2,280.7 204.8,280.7 200.9,336.5 211,341.6 224,349.5 &#9;" style="fill: rgb(104, 225, 253);"/>
	<polygon class="st18_online-payment-38" points="218.2,285.7 214.2,280.7 204.8,280.7 200.9,336.5 211,341.6 224,349.5 &#9;"/>
	<path class="st2_online-payment-38" d="M239.7,254.2c-12.1,0.1-12.7,21.7-14,30.5c-0.3,2.2,2.8,3.2,3.1,0.9c1.1-7.4,1.2-17.5,5.3-23.8&#10;&#9;&#9;c1.7-2.6,4.6-4.8,7.6-3.1c2.6,1.5,2.6,4.9,2.9,7.7c0.4,4.6,0.2,9.3-0.5,13.9c-0.3,2.2,2.8,3.2,3.1,0.9&#10;&#9;&#9;C248.2,274.5,250.5,254.1,239.7,254.2z"/>
</g>
</svg>